<svg width="200" height="200" viewBox="0 0 200 200" fill="none" xmlns="http://www.w3.org/2000/svg">
<path d="M73.6248 116.667H41.6665C39.9709 116.759 38.3441 117.367 37.0037 118.41C35.6633 119.452 34.6734 120.879 34.1665 122.5L17.4998 172.5C16.6665 173.333 16.6665 174.167 16.6665 175C16.6665 180 19.9998 183.333 24.9998 183.333H175C180 183.333 183.333 180 183.333 175C183.333 174.167 183.333 173.333 182.5 172.5L165.833 122.5C165.326 120.879 164.336 119.452 162.996 118.41C161.656 117.367 160.029 116.759 158.333 116.667H126.375" stroke="#CBCBCB" stroke-width="5" stroke-linecap="round" stroke-linejoin="round"/>
<path d="M118.75 106.5C120 100.25 123.125 95.875 128.125 90.875C134.375 85.25 137.5 77.125 137.5 69C137.5 59.0544 133.549 49.5161 126.517 42.4835C119.484 35.4509 109.946 31.5 100 31.5C90.0544 31.5 80.5161 35.4509 73.4835 42.4835C66.4509 49.5161 62.5 59.0544 62.5 69C62.5 75.25 63.75 82.75 71.875 90.875C76.25 95.25 80 100.25 81.25 106.5" fill="#FAD200"/>
<path d="M118.75 106.5C120 100.25 123.125 95.875 128.125 90.875C134.375 85.25 137.5 77.125 137.5 69C137.5 59.0544 133.549 49.5161 126.517 42.4835C119.484 35.4509 109.946 31.5 100 31.5C90.0544 31.5 80.5161 35.4509 73.4835 42.4835C66.4509 49.5161 62.5 59.0544 62.5 69C62.5 75.25 63.75 82.75 71.875 90.875C76.25 95.25 80 100.25 81.25 106.5" stroke="#CBCBCB" stroke-width="5" stroke-linecap="round" stroke-linejoin="round"/>
<path d="M81.25 108.25H118.75" stroke="#CBCBCB" stroke-width="5" stroke-linecap="round" stroke-linejoin="round"/>
<path d="M87.25 139.75H112.25" stroke="#CBCBCB" stroke-width="5" stroke-linecap="round" stroke-linejoin="round"/>
<path d="M81.625 108.625V124.971C81.625 130.156 83.4567 135.175 86.797 139.142L87.625 140.125M118.375 108.625V124.595C118.375 130.007 116.38 135.23 112.77 139.264L112 140.125" stroke="#CBCBCB" stroke-width="5"/>
<path d="M82 119.5H117.625M82 130H117.625" stroke="#CBCBCB" stroke-width="5"/>
<path d="M87.625 140.125C97.716 151.418 102.979 149.899 112 140.125" stroke="#CBCBCB" stroke-width="5"/>
<path d="M44 98.5L59.5 87.5M39.5 75.5L55 74.5M37 39.5L56 50.5M62.5 18L72.5 31.5M101.5 2.5V22.5M127 33.5L138 25.5M143 52L163.5 48.5M147 71H161M139.5 91.5L155.5 101" stroke="#FAD200" stroke-width="5"/>
<path d="M37.5 116.5L54.0816 126.526C57.0273 128.307 58.5251 131.756 57.8159 135.124V135.124C57.3011 137.57 57.9442 140.116 59.5584 142.024L61.4132 144.216C62.1351 145.069 62.9569 145.832 63.8608 146.49L68 149.5" stroke="#CBCBCB" stroke-width="5"/>
<path d="M18.5 170L39.8495 150.175C43.631 146.664 49.4523 146.571 53.3437 149.961L53.6103 150.193C58.0588 154.067 64.8991 153.151 68.1714 148.243V148.243C70.9243 144.114 76.3333 142.701 80.7539 144.956L97.5 153.5L101.868 155.125C111.799 158.821 122.953 154.911 128.405 145.825L132.5 139V139C136.633 132.801 144.432 130.144 151.5 132.5V132.5L156.63 133.526C159.577 134.115 162.588 132.868 164.255 130.368V130.368C165.067 129.15 165.5 127.719 165.5 126.255V124V120.5" stroke="#CBCBCB" stroke-width="5"/>
<path d="M180 182L176.251 177.548C173.478 174.255 169.8 171.848 165.673 170.625L152.777 166.804C148.224 165.455 145.203 161.144 145.491 156.403V156.403C145.786 151.524 142.581 147.121 137.846 145.903L128.5 143.5" stroke="#CBCBCB" stroke-width="5"/>
</svg>
